<mxfile host="app.diagrams.net" modified="2023-11-27T23:16:26.790Z" agent="Mozilla/5.0 (Macintosh; Intel Mac OS X 10_15_7) AppleWebKit/537.36 (KHTML, like Gecko) Chrome/119.0.0.0 Safari/537.36" etag="VIt5Gfh9TRbPxyw34f9d" version="22.1.4" type="device">
  <diagram name="PÃ¡gina-1" id="VneA_2zYiAd7QzlH9r-Z">
    <mxGraphModel dx="2021" dy="641" grid="1" gridSize="10" guides="1" tooltips="1" connect="1" arrows="1" fold="1" page="1" pageScale="1" pageWidth="827" pageHeight="1169" math="0" shadow="0">
      <root>
        <mxCell id="0" />
        <mxCell id="1" parent="0" />
        <mxCell id="_gAjcLLMuDkEMkFIIIC1-2" value="utilizador" style="rounded=1;arcSize=10;whiteSpace=wrap;html=1;align=center;" vertex="1" parent="1">
          <mxGeometry x="20" y="230" width="100" height="40" as="geometry" />
        </mxCell>
        <mxCell id="_gAjcLLMuDkEMkFIIIC1-4" value="desafio" style="rounded=1;arcSize=10;whiteSpace=wrap;html=1;align=center;" vertex="1" parent="1">
          <mxGeometry x="364" y="230" width="100" height="40" as="geometry" />
        </mxCell>
        <mxCell id="_gAjcLLMuDkEMkFIIIC1-5" value="registo" style="rounded=1;arcSize=10;whiteSpace=wrap;html=1;align=center;" vertex="1" parent="1">
          <mxGeometry x="90" y="450" width="100" height="40" as="geometry" />
        </mxCell>
        <mxCell id="_gAjcLLMuDkEMkFIIIC1-6" value="dificuldade" style="rounded=1;arcSize=10;whiteSpace=wrap;html=1;align=center;" vertex="1" parent="1">
          <mxGeometry x="680" y="230" width="100" height="40" as="geometry" />
        </mxCell>
        <mxCell id="_gAjcLLMuDkEMkFIIIC1-10" value="tem" style="shape=rhombus;perimeter=rhombusPerimeter;whiteSpace=wrap;html=1;align=center;" vertex="1" parent="1">
          <mxGeometry x="210" y="150" width="70" height="50" as="geometry" />
        </mxCell>
        <mxCell id="_gAjcLLMuDkEMkFIIIC1-12" value="" style="endArrow=none;html=1;rounded=0;entryX=0;entryY=0.5;entryDx=0;entryDy=0;exitX=0.93;exitY=0.05;exitDx=0;exitDy=0;exitPerimeter=0;" edge="1" parent="1" source="_gAjcLLMuDkEMkFIIIC1-2" target="_gAjcLLMuDkEMkFIIIC1-10">
          <mxGeometry width="50" height="50" relative="1" as="geometry">
            <mxPoint x="270" y="310" as="sourcePoint" />
            <mxPoint x="440" y="310" as="targetPoint" />
          </mxGeometry>
        </mxCell>
        <mxCell id="_gAjcLLMuDkEMkFIIIC1-27" value="N" style="edgeLabel;html=1;align=center;verticalAlign=middle;resizable=0;points=[];" vertex="1" connectable="0" parent="_gAjcLLMuDkEMkFIIIC1-12">
          <mxGeometry x="-0.6214" y="-3" relative="1" as="geometry">
            <mxPoint x="-9" y="-16" as="offset" />
          </mxGeometry>
        </mxCell>
        <mxCell id="_gAjcLLMuDkEMkFIIIC1-13" value="" style="endArrow=none;html=1;rounded=0;entryX=1;entryY=0.5;entryDx=0;entryDy=0;exitX=0;exitY=0;exitDx=0;exitDy=0;" edge="1" parent="1" source="_gAjcLLMuDkEMkFIIIC1-4" target="_gAjcLLMuDkEMkFIIIC1-10">
          <mxGeometry width="50" height="50" relative="1" as="geometry">
            <mxPoint x="390" y="360" as="sourcePoint" />
            <mxPoint x="440" y="310" as="targetPoint" />
          </mxGeometry>
        </mxCell>
        <mxCell id="_gAjcLLMuDkEMkFIIIC1-28" value="N" style="edgeLabel;html=1;align=center;verticalAlign=middle;resizable=0;points=[];" vertex="1" connectable="0" parent="_gAjcLLMuDkEMkFIIIC1-13">
          <mxGeometry x="-0.4703" y="-4" relative="1" as="geometry">
            <mxPoint x="6" as="offset" />
          </mxGeometry>
        </mxCell>
        <mxCell id="_gAjcLLMuDkEMkFIIIC1-14" value="" style="endArrow=none;html=1;rounded=0;exitX=1;exitY=0.5;exitDx=0;exitDy=0;entryX=0.143;entryY=0.5;entryDx=0;entryDy=0;entryPerimeter=0;" edge="1" parent="1" source="_gAjcLLMuDkEMkFIIIC1-2" target="_gAjcLLMuDkEMkFIIIC1-15">
          <mxGeometry width="50" height="50" relative="1" as="geometry">
            <mxPoint x="390" y="360" as="sourcePoint" />
            <mxPoint x="190" y="250" as="targetPoint" />
          </mxGeometry>
        </mxCell>
        <mxCell id="_gAjcLLMuDkEMkFIIIC1-29" value="1" style="edgeLabel;html=1;align=center;verticalAlign=middle;resizable=0;points=[];" vertex="1" connectable="0" parent="_gAjcLLMuDkEMkFIIIC1-14">
          <mxGeometry x="-0.725" relative="1" as="geometry">
            <mxPoint y="-10" as="offset" />
          </mxGeometry>
        </mxCell>
        <mxCell id="_gAjcLLMuDkEMkFIIIC1-15" value="cria" style="shape=rhombus;perimeter=rhombusPerimeter;whiteSpace=wrap;html=1;align=center;" vertex="1" parent="1">
          <mxGeometry x="190" y="225" width="70" height="50" as="geometry" />
        </mxCell>
        <mxCell id="_gAjcLLMuDkEMkFIIIC1-16" value="" style="endArrow=none;html=1;rounded=0;entryX=0;entryY=0.5;entryDx=0;entryDy=0;exitX=1;exitY=0.5;exitDx=0;exitDy=0;" edge="1" parent="1" source="_gAjcLLMuDkEMkFIIIC1-15" target="_gAjcLLMuDkEMkFIIIC1-4">
          <mxGeometry width="50" height="50" relative="1" as="geometry">
            <mxPoint x="260" y="250" as="sourcePoint" />
            <mxPoint x="440" y="310" as="targetPoint" />
          </mxGeometry>
        </mxCell>
        <mxCell id="_gAjcLLMuDkEMkFIIIC1-30" value="N" style="edgeLabel;html=1;align=center;verticalAlign=middle;resizable=0;points=[];" vertex="1" connectable="0" parent="_gAjcLLMuDkEMkFIIIC1-16">
          <mxGeometry x="0.4808" y="1" relative="1" as="geometry">
            <mxPoint y="-9" as="offset" />
          </mxGeometry>
        </mxCell>
        <mxCell id="_gAjcLLMuDkEMkFIIIC1-17" value="tem" style="shape=rhombus;perimeter=rhombusPerimeter;whiteSpace=wrap;html=1;align=center;" vertex="1" parent="1">
          <mxGeometry x="150" y="340" width="70" height="50" as="geometry" />
        </mxCell>
        <mxCell id="_gAjcLLMuDkEMkFIIIC1-18" value="valida" style="shape=rhombus;perimeter=rhombusPerimeter;whiteSpace=wrap;html=1;align=center;" vertex="1" parent="1">
          <mxGeometry x="20" y="340" width="70" height="50" as="geometry" />
        </mxCell>
        <mxCell id="_gAjcLLMuDkEMkFIIIC1-19" value="" style="endArrow=none;html=1;rounded=0;entryX=0.25;entryY=1;entryDx=0;entryDy=0;exitX=0.5;exitY=0;exitDx=0;exitDy=0;" edge="1" parent="1" source="_gAjcLLMuDkEMkFIIIC1-18" target="_gAjcLLMuDkEMkFIIIC1-2">
          <mxGeometry width="50" height="50" relative="1" as="geometry">
            <mxPoint x="390" y="360" as="sourcePoint" />
            <mxPoint x="440" y="310" as="targetPoint" />
          </mxGeometry>
        </mxCell>
        <mxCell id="_gAjcLLMuDkEMkFIIIC1-35" value="1" style="edgeLabel;html=1;align=center;verticalAlign=middle;resizable=0;points=[];" vertex="1" connectable="0" parent="_gAjcLLMuDkEMkFIIIC1-19">
          <mxGeometry x="0.66" y="1" relative="1" as="geometry">
            <mxPoint x="-8" as="offset" />
          </mxGeometry>
        </mxCell>
        <mxCell id="_gAjcLLMuDkEMkFIIIC1-20" value="" style="endArrow=none;html=1;rounded=0;exitX=0.5;exitY=1;exitDx=0;exitDy=0;entryX=0;entryY=0;entryDx=0;entryDy=0;" edge="1" parent="1" source="_gAjcLLMuDkEMkFIIIC1-18" target="_gAjcLLMuDkEMkFIIIC1-5">
          <mxGeometry width="50" height="50" relative="1" as="geometry">
            <mxPoint x="390" y="360" as="sourcePoint" />
            <mxPoint x="440" y="310" as="targetPoint" />
          </mxGeometry>
        </mxCell>
        <mxCell id="_gAjcLLMuDkEMkFIIIC1-36" value="N" style="edgeLabel;html=1;align=center;verticalAlign=middle;resizable=0;points=[];" vertex="1" connectable="0" parent="_gAjcLLMuDkEMkFIIIC1-20">
          <mxGeometry x="0.6145" y="1" relative="1" as="geometry">
            <mxPoint x="-13" as="offset" />
          </mxGeometry>
        </mxCell>
        <mxCell id="_gAjcLLMuDkEMkFIIIC1-21" value="" style="endArrow=none;html=1;rounded=0;entryX=0.5;entryY=0;entryDx=0;entryDy=0;" edge="1" parent="1" target="_gAjcLLMuDkEMkFIIIC1-17">
          <mxGeometry width="50" height="50" relative="1" as="geometry">
            <mxPoint x="120" y="270" as="sourcePoint" />
            <mxPoint x="100" y="460" as="targetPoint" />
          </mxGeometry>
        </mxCell>
        <mxCell id="_gAjcLLMuDkEMkFIIIC1-33" value="1" style="edgeLabel;html=1;align=center;verticalAlign=middle;resizable=0;points=[];" vertex="1" connectable="0" parent="_gAjcLLMuDkEMkFIIIC1-21">
          <mxGeometry x="-0.7655" y="3" relative="1" as="geometry">
            <mxPoint x="2" y="-5" as="offset" />
          </mxGeometry>
        </mxCell>
        <mxCell id="_gAjcLLMuDkEMkFIIIC1-22" value="" style="endArrow=none;html=1;rounded=0;exitX=0.5;exitY=1;exitDx=0;exitDy=0;entryX=0.62;entryY=-0.025;entryDx=0;entryDy=0;entryPerimeter=0;" edge="1" parent="1" source="_gAjcLLMuDkEMkFIIIC1-17" target="_gAjcLLMuDkEMkFIIIC1-5">
          <mxGeometry width="50" height="50" relative="1" as="geometry">
            <mxPoint x="75" y="410" as="sourcePoint" />
            <mxPoint x="110" y="470" as="targetPoint" />
          </mxGeometry>
        </mxCell>
        <mxCell id="_gAjcLLMuDkEMkFIIIC1-34" value="N" style="edgeLabel;html=1;align=center;verticalAlign=middle;resizable=0;points=[];" vertex="1" connectable="0" parent="_gAjcLLMuDkEMkFIIIC1-22">
          <mxGeometry x="0.6179" y="-1" relative="1" as="geometry">
            <mxPoint x="12" y="-1" as="offset" />
          </mxGeometry>
        </mxCell>
        <mxCell id="_gAjcLLMuDkEMkFIIIC1-23" value="" style="endArrow=none;html=1;rounded=0;exitX=0;exitY=0.5;exitDx=0;exitDy=0;entryX=1;entryY=0.5;entryDx=0;entryDy=0;" edge="1" parent="1" source="_gAjcLLMuDkEMkFIIIC1-24" target="_gAjcLLMuDkEMkFIIIC1-4">
          <mxGeometry width="50" height="50" relative="1" as="geometry">
            <mxPoint x="85" y="420" as="sourcePoint" />
            <mxPoint x="120" y="480" as="targetPoint" />
          </mxGeometry>
        </mxCell>
        <mxCell id="_gAjcLLMuDkEMkFIIIC1-31" value="N" style="edgeLabel;html=1;align=center;verticalAlign=middle;resizable=0;points=[];" vertex="1" connectable="0" parent="_gAjcLLMuDkEMkFIIIC1-23">
          <mxGeometry x="0.6857" y="-1" relative="1" as="geometry">
            <mxPoint y="-9" as="offset" />
          </mxGeometry>
        </mxCell>
        <mxCell id="_gAjcLLMuDkEMkFIIIC1-24" value="tem" style="shape=rhombus;perimeter=rhombusPerimeter;whiteSpace=wrap;html=1;align=center;" vertex="1" parent="1">
          <mxGeometry x="534" y="225" width="50" height="50" as="geometry" />
        </mxCell>
        <mxCell id="_gAjcLLMuDkEMkFIIIC1-26" value="" style="endArrow=none;html=1;rounded=0;entryX=0;entryY=0.5;entryDx=0;entryDy=0;exitX=1;exitY=0.5;exitDx=0;exitDy=0;" edge="1" parent="1" source="_gAjcLLMuDkEMkFIIIC1-24" target="_gAjcLLMuDkEMkFIIIC1-6">
          <mxGeometry width="50" height="50" relative="1" as="geometry">
            <mxPoint x="390" y="360" as="sourcePoint" />
            <mxPoint x="440" y="310" as="targetPoint" />
          </mxGeometry>
        </mxCell>
        <mxCell id="_gAjcLLMuDkEMkFIIIC1-32" value="1" style="edgeLabel;html=1;align=center;verticalAlign=middle;resizable=0;points=[];" vertex="1" connectable="0" parent="_gAjcLLMuDkEMkFIIIC1-26">
          <mxGeometry x="0.5833" y="-1" relative="1" as="geometry">
            <mxPoint y="-11" as="offset" />
          </mxGeometry>
        </mxCell>
        <mxCell id="_gAjcLLMuDkEMkFIIIC1-37" value="ID_utilizador" style="text;html=1;strokeColor=none;fillColor=none;align=left;verticalAlign=middle;whiteSpace=wrap;rounded=0;" vertex="1" parent="1">
          <mxGeometry x="20" y="120" width="60" height="30" as="geometry" />
        </mxCell>
        <mxCell id="_gAjcLLMuDkEMkFIIIC1-38" value="Nome" style="text;html=1;strokeColor=none;fillColor=none;align=left;verticalAlign=middle;whiteSpace=wrap;rounded=0;" vertex="1" parent="1">
          <mxGeometry x="20" y="150" width="60" height="30" as="geometry" />
        </mxCell>
        <mxCell id="_gAjcLLMuDkEMkFIIIC1-39" value="Email" style="text;html=1;strokeColor=none;fillColor=none;align=left;verticalAlign=middle;whiteSpace=wrap;rounded=0;" vertex="1" parent="1">
          <mxGeometry x="20" y="180" width="60" height="30" as="geometry" />
        </mxCell>
        <mxCell id="_gAjcLLMuDkEMkFIIIC1-40" value="ID_desafio" style="text;html=1;strokeColor=none;fillColor=none;align=left;verticalAlign=middle;whiteSpace=wrap;rounded=0;" vertex="1" parent="1">
          <mxGeometry x="384" y="275" width="60" height="30" as="geometry" />
        </mxCell>
        <mxCell id="_gAjcLLMuDkEMkFIIIC1-41" value="Titulo" style="text;html=1;strokeColor=none;fillColor=none;align=left;verticalAlign=middle;whiteSpace=wrap;rounded=0;" vertex="1" parent="1">
          <mxGeometry x="384" y="305" width="60" height="30" as="geometry" />
        </mxCell>
        <mxCell id="_gAjcLLMuDkEMkFIIIC1-42" value="Pais" style="text;html=1;strokeColor=none;fillColor=none;align=left;verticalAlign=middle;whiteSpace=wrap;rounded=0;" vertex="1" parent="1">
          <mxGeometry x="384" y="335" width="60" height="30" as="geometry" />
        </mxCell>
        <mxCell id="_gAjcLLMuDkEMkFIIIC1-43" value="Regiao" style="text;html=1;strokeColor=none;fillColor=none;align=left;verticalAlign=middle;whiteSpace=wrap;rounded=0;" vertex="1" parent="1">
          <mxGeometry x="384" y="360" width="60" height="30" as="geometry" />
        </mxCell>
        <mxCell id="_gAjcLLMuDkEMkFIIIC1-44" value="Localidade" style="text;html=1;strokeColor=none;fillColor=none;align=left;verticalAlign=middle;whiteSpace=wrap;rounded=0;" vertex="1" parent="1">
          <mxGeometry x="384" y="390" width="60" height="30" as="geometry" />
        </mxCell>
        <mxCell id="_gAjcLLMuDkEMkFIIIC1-45" value="ID_dificuldade" style="text;html=1;strokeColor=none;fillColor=none;align=left;verticalAlign=middle;whiteSpace=wrap;rounded=0;" vertex="1" parent="1">
          <mxGeometry x="700" y="275" width="60" height="30" as="geometry" />
        </mxCell>
        <mxCell id="_gAjcLLMuDkEMkFIIIC1-46" value="Nome" style="text;html=1;strokeColor=none;fillColor=none;align=left;verticalAlign=middle;whiteSpace=wrap;rounded=0;" vertex="1" parent="1">
          <mxGeometry x="700" y="305" width="60" height="30" as="geometry" />
        </mxCell>
        <mxCell id="_gAjcLLMuDkEMkFIIIC1-47" value="DescriÃ§Ã£o" style="text;html=1;strokeColor=none;fillColor=none;align=left;verticalAlign=middle;whiteSpace=wrap;rounded=0;" vertex="1" parent="1">
          <mxGeometry x="700" y="335" width="60" height="30" as="geometry" />
        </mxCell>
        <mxCell id="_gAjcLLMuDkEMkFIIIC1-48" value="ID_registo" style="text;html=1;strokeColor=none;fillColor=none;align=left;verticalAlign=middle;whiteSpace=wrap;rounded=0;" vertex="1" parent="1">
          <mxGeometry x="110" y="495" width="60" height="30" as="geometry" />
        </mxCell>
        <mxCell id="_gAjcLLMuDkEMkFIIIC1-49" value="DataConclusao" style="text;html=1;strokeColor=none;fillColor=none;align=left;verticalAlign=middle;whiteSpace=wrap;rounded=0;" vertex="1" parent="1">
          <mxGeometry x="110" y="525" width="60" height="30" as="geometry" />
        </mxCell>
        <mxCell id="_gAjcLLMuDkEMkFIIIC1-51" value="DataValidaÃ§Ã£o" style="text;html=1;strokeColor=none;fillColor=none;align=center;verticalAlign=middle;whiteSpace=wrap;rounded=0;" vertex="1" parent="1">
          <mxGeometry x="-100" y="350" width="60" height="30" as="geometry" />
        </mxCell>
        <mxCell id="_gAjcLLMuDkEMkFIIIC1-52" value="" style="endArrow=none;html=1;rounded=0;exitX=0;exitY=0.5;exitDx=0;exitDy=0;" edge="1" parent="1" source="_gAjcLLMuDkEMkFIIIC1-18">
          <mxGeometry width="50" height="50" relative="1" as="geometry">
            <mxPoint x="100" y="360" as="sourcePoint" />
            <mxPoint x="-20" y="365" as="targetPoint" />
          </mxGeometry>
        </mxCell>
      </root>
    </mxGraphModel>
  </diagram>
</mxfile>
